<?xml version="1.0" encoding="UTF-8" standalone="no"?>
<!-- Created with Inkscape (http://www.inkscape.org/) -->

<svg
   version="1.1"
   id="svg1"
   width="512"
   height="512"
   viewBox="0 0 512 512"
   sodipodi:docname="icon.svg"
   inkscape:version="1.3.2 (091e20ef0f, 2023-11-25)"
   inkscape:export-filename="icon.png"
   inkscape:export-xdpi="96"
   inkscape:export-ydpi="96"
   xmlns:inkscape="http://www.inkscape.org/namespaces/inkscape"
   xmlns:sodipodi="http://sodipodi.sourceforge.net/DTD/sodipodi-0.dtd"
   xmlns="http://www.w3.org/2000/svg"
   xmlns:svg="http://www.w3.org/2000/svg">
  <defs
     id="defs1" />
  <sodipodi:namedview
     id="namedview1"
     pagecolor="#ffffff"
     bordercolor="#000000"
     borderopacity="0.25"
     inkscape:showpageshadow="2"
     inkscape:pageopacity="0.0"
     inkscape:pagecheckerboard="0"
     inkscape:deskcolor="#d1d1d1"
     inkscape:zoom="1"
     inkscape:cx="395"
     inkscape:cy="354.5"
     inkscape:window-width="1920"
     inkscape:window-height="1055"
     inkscape:window-x="0"
     inkscape:window-y="25"
     inkscape:window-maximized="1"
     inkscape:current-layer="g1" />
  <g
     inkscape:groupmode="layer"
     inkscape:label="Image"
     id="g1">
    <circle
       style="fill:#ffffff;stroke-width:1.04716"
       id="path2"
       cx="256"
       cy="256"
       r="250" />
    <path
       style="fill:#000000;stroke-width:0.546213"
       d="m 268.38653,461.35766 c 0.17268,-1.14795 5.31469,-47.80651 11.42752,-103.68429 L 290.92828,256.07764 279.573,152.57004 C 273.32755,95.640996 268.25239,49.027746 268.29495,48.985204 c 0.0414,-0.04141 39.03598,23.228022 86.65212,51.712426 l 86.57492,51.78979 0.13951,2.08965 c 0.41996,6.31813 3.39329,83.40266 3.22393,83.57215 -0.11051,0.11051 -10.14185,-12.52393 -22.29074,-28.07744 l -22.08906,-28.27926 -49.83772,-23.69341 c -27.41078,-13.03149 -49.95045,-23.58098 -50.08805,-23.44339 -0.13812,0.13813 7.35598,27.52212 16.65227,60.85427 l 16.9023,60.60412 -16.90451,60.60977 c -9.29753,33.33532 -16.8429,60.74597 -16.76747,60.91243 0.12433,0.26109 97.83749,-45.97905 99.67807,-47.16677 0.37159,-0.24037 10.54964,-13.08466 22.61704,-28.54367 12.06724,-15.45888 22.02509,-28.0226 22.1283,-27.9194 0.33013,0.33014 -3.20432,85.29006 -3.56404,85.67837 -0.23482,0.25418 -152.97883,91.7372 -172.82519,103.51064 -0.23208,0.13815 -0.2818,-0.68931 -0.11051,-1.83782 z M 149.43415,412.39049 67.092406,364.78608 V 254.39619 144.00629 L 149.54991,96.397866 c 45.35175,-26.184636 82.58985,-47.60841 82.75145,-47.60841 0.16164,0 0.29425,92.542304 0.29425,205.649554 0,113.10727 -0.18372,205.62841 -0.41027,205.60272 -0.22518,-0.0276 -37.4634,-21.4688 -82.75147,-47.65124 z"
       id="path1" />
  </g>
</svg>
