<?xml version="1.0" encoding="UTF-8" standalone="no"?>
<!-- Created with Inkscape (http://www.inkscape.org/) -->

<svg
   version="1.1"
   id="svg1"
   width="512"
   height="512"
   viewBox="0 0 512 512"
   sodipodi:docname="icon.svg"
   inkscape:version="1.3.2 (091e20ef0f, 2023-11-25)"
   inkscape:export-filename="icon.png"
   inkscape:export-xdpi="96"
   inkscape:export-ydpi="96"
   xmlns:inkscape="http://www.inkscape.org/namespaces/inkscape"
   xmlns:sodipodi="http://sodipodi.sourceforge.net/DTD/sodipodi-0.dtd"
   xmlns="http://www.w3.org/2000/svg"
   xmlns:svg="http://www.w3.org/2000/svg">
  <defs
     id="defs1" />
  <sodipodi:namedview
     id="namedview1"
     pagecolor="#ffffff"
     bordercolor="#000000"
     borderopacity="0.25"
     inkscape:showpageshadow="2"
     inkscape:pageopacity="0.0"
     inkscape:pagecheckerboard="0"
     inkscape:deskcolor="#d1d1d1"
     inkscape:zoom="1"
     inkscape:cx="395"
     inkscape:cy="356.5"
     inkscape:window-width="1920"
     inkscape:window-height="1055"
     inkscape:window-x="0"
     inkscape:window-y="25"
     inkscape:window-maximized="1"
     inkscape:current-layer="g1" />
  <g
     inkscape:groupmode="layer"
     inkscape:label="Image"
     id="g1">
    <path
       style="fill:#000000;stroke-width:0.624289"
       d="m 270.15706,490.7115 c 0.19736,-1.31203 6.07437,-54.63997 13.06098,-118.50493 l 12.70289,-116.11784 -12.9784,-118.303 C 275.80435,72.719271 270.00376,19.443108 270.05239,19.394484 c 0.0473,-0.04733 44.61579,26.548234 99.0382,59.104206 l 98.94994,59.19262 0.15946,2.38835 c 0.47998,7.22124 3.87832,95.32424 3.68474,95.51796 -0.1263,0.12631 -11.59152,-14.31411 -25.47697,-32.09083 l -25.24647,-32.32151 -56.96154,-27.08015 c -31.32888,-14.8942 -57.09037,-26.95164 -57.24763,-26.79439 -0.15788,0.15788 8.40744,31.45614 19.03255,69.5528 l 19.31831,69.26687 -19.32084,69.27334 c -10.62653,38.10029 -19.25043,69.42902 -19.16422,69.61927 0.1421,0.29841 111.82239,-52.5513 113.92607,-53.9088 0.42471,-0.27473 12.05761,-14.95499 25.84991,-32.62371 13.79214,-17.66857 25.17337,-32.02815 25.29132,-31.91021 0.37734,0.37734 -3.66233,97.48144 -4.07347,97.92526 -0.2684,0.29051 -174.84565,104.85013 -197.52885,118.30646 -0.26525,0.1579 -0.32208,-0.78784 -0.1263,-2.10052 z M 134.20161,434.74496 40.089936,380.33597 V 254.16694 127.99789 L 134.33392,73.584324 c 51.83434,-29.927476 94.39525,-54.413568 94.57996,-54.413568 0.18474,0 0.33631,105.770304 0.33631,235.045124 0,129.27483 -0.20999,235.02097 -0.46892,234.9916 -0.25736,-0.0316 -42.81842,-24.53756 -94.57998,-54.46252 z"
       id="path1" />
  </g>
</svg>
